<svg width="68" height="68" viewBox="0 0 68 68" fill="none" xmlns="http://www.w3.org/2000/svg">
<path d="M37.3334 47.3466H17.3334C16.4494 47.3466 15.6015 47.6977 14.9764 48.3229C14.3513 48.948 14.0001 49.7958 14.0001 50.6799C14.0001 51.5639 14.3513 52.4118 14.9764 53.0369C15.6015 53.662 16.4494 54.0132 17.3334 54.0132H37.3334C38.2175 54.0132 39.0653 53.662 39.6904 53.0369C40.3156 52.4118 40.6668 51.5639 40.6668 50.6799C40.6668 49.7958 40.3156 48.948 39.6904 48.3229C39.0653 47.6977 38.2175 47.3466 37.3334 47.3466ZM24.0001 27.3466H30.6668C31.5508 27.3466 32.3987 26.9954 33.0238 26.3703C33.6489 25.7451 34.0001 24.8973 34.0001 24.0132C34.0001 23.1292 33.6489 22.2813 33.0238 21.6562C32.3987 21.0311 31.5508 20.6799 30.6668 20.6799H24.0001C23.116 20.6799 22.2682 21.0311 21.6431 21.6562C21.018 22.2813 20.6668 23.1292 20.6668 24.0132C20.6668 24.8973 21.018 25.7451 21.6431 26.3703C22.2682 26.9954 23.116 27.3466 24.0001 27.3466ZM64.0001 34.0132H54.0001V4.01324C54.0024 3.42588 53.8495 2.84832 53.5568 2.33907C53.2641 1.82981 52.8421 1.40693 52.3334 1.11325C51.8267 0.820685 51.2519 0.666664 50.6668 0.666664C50.0816 0.666664 49.5068 0.820685 49.0001 1.11325L39.0001 6.84658L29.0001 1.11325C28.4934 0.820685 27.9186 0.666664 27.3334 0.666664C26.7483 0.666664 26.1735 0.820685 25.6668 1.11325L15.6668 6.84658L5.66677 1.11325C5.16004 0.820685 4.58523 0.666664 4.00011 0.666664C3.41498 0.666664 2.84017 0.820685 2.33344 1.11325C1.82476 1.40693 1.40271 1.82981 1.11003 2.33907C0.817357 2.84832 0.664442 3.42588 0.666774 4.01324V57.3466C0.666774 59.9987 1.72034 62.5423 3.59571 64.4176C5.47107 66.293 8.01461 67.3465 10.6668 67.3465H57.3334C59.9856 67.3465 62.5291 66.293 64.4045 64.4176C66.2798 62.5423 67.3334 59.9987 67.3334 57.3466V37.3466C67.3334 36.4625 66.9822 35.6147 66.3571 34.9895C65.732 34.3644 64.8841 34.0132 64.0001 34.0132ZM10.6668 60.6799C9.78271 60.6799 8.93487 60.3287 8.30975 59.7036C7.68463 59.0785 7.33344 58.2306 7.33344 57.3466V9.77991L14.0001 13.5799C14.5146 13.8486 15.0864 13.9889 15.6668 13.9889C16.2472 13.9889 16.819 13.8486 17.3334 13.5799L27.3334 7.84658L37.3334 13.5799C37.8479 13.8486 38.4197 13.9889 39.0001 13.9889C39.5805 13.9889 40.1523 13.8486 40.6668 13.5799L47.3334 9.77991V57.3466C47.3424 58.4837 47.5453 59.611 47.9334 60.6799H10.6668ZM60.6667 57.3466C60.6667 58.2306 60.3156 59.0785 59.6904 59.7036C59.0653 60.3287 58.2175 60.6799 57.3334 60.6799C56.4494 60.6799 55.6015 60.3287 54.9764 59.7036C54.3513 59.0785 54.0001 58.2306 54.0001 57.3466V40.6799H60.6667V57.3466ZM37.3334 34.0132H17.3334C16.4494 34.0132 15.6015 34.3644 14.9764 34.9895C14.3513 35.6147 14.0001 36.4625 14.0001 37.3466C14.0001 38.2306 14.3513 39.0785 14.9764 39.7036C15.6015 40.3287 16.4494 40.6799 17.3334 40.6799H37.3334C38.2175 40.6799 39.0653 40.3287 39.6904 39.7036C40.3156 39.0785 40.6668 38.2306 40.6668 37.3466C40.6668 36.4625 40.3156 35.6147 39.6904 34.9895C39.0653 34.3644 38.2175 34.0132 37.3334 34.0132Z" fill="#FBFCFE"/>
</svg>
